<svg width="52" height="59" viewBox="0 0 52 59" fill="none" xmlns="http://www.w3.org/2000/svg">
<path d="M7.54966 47.0116H51.9087V-2.15959e-05H7.42723C5.45935 0.00630551 3.57388 0.790847 2.18237 2.18235C0.790868 3.57386 0.00632711 5.45933 0 7.42721V50.715C0 50.7335 0 50.7518 0 50.7705C0 55.1044 3.40124 58.7649 7.42723 58.7649H51.9087V54.8469H7.42723C5.59047 54.8469 3.91764 52.9039 3.91764 50.7701C3.91764 48.7329 5.5808 47.0116 7.54966 47.0116ZM23.5058 3.91762L27.4235 3.95838H39.1764L43.094 3.91762H47.9911V43.094H11.7627L11.7529 3.91762H23.5058ZM7.42723 3.91762H7.83528L7.84458 43.094H7.54917C6.27531 43.0942 5.02356 43.4269 3.91764 44.0591V7.45781C3.91464 6.52328 4.28246 5.62571 4.94041 4.96202C5.59836 4.29834 6.4927 3.92273 7.42723 3.91762Z" fill="#EEF0F2"/>
</svg>
