<svg width="432" height="287" viewBox="0 0 432 287" fill="none" xmlns="http://www.w3.org/2000/svg">
<g clip-path="url(#clip0_117_1832)">
<path d="M154.959 165.171C169.763 139.136 198.004 119.146 227.898 121.072C205.847 145.044 192.988 176.04 191.598 208.577C191.107 221.127 191.868 235.137 183.532 244.535C178.346 250.382 170.418 253.214 162.624 253.808C154.828 254.402 147.035 252.994 139.344 251.592L137.479 252.165C136.768 222.226 140.154 191.206 154.959 165.171Z" fill="#F0F0F0"/>
<path d="M227.943 121.699C205.836 132.338 186.986 150.105 175.415 171.775C172.913 176.459 170.783 181.429 169.854 186.684C168.924 191.942 169.574 196.946 171.37 201.939C173.012 206.504 175.221 210.984 175.724 215.868C176.255 221.016 174.36 225.83 170.949 229.651C166.775 234.325 161.171 237.222 155.591 239.864C149.396 242.798 142.915 245.747 138.527 251.223C137.996 251.886 136.997 251.023 137.528 250.36C145.162 240.834 158.229 239.043 167.291 231.369C171.519 227.788 174.694 222.912 174.493 217.198C174.318 212.202 172.045 207.581 170.342 202.973C168.554 198.135 167.663 193.271 168.304 188.112C168.96 182.836 170.9 177.772 173.271 173.044C178.618 162.381 185.935 152.591 194.318 144.128C203.952 134.401 215.18 126.392 227.515 120.45C228.279 120.082 228.702 121.334 227.943 121.699Z" fill="white"/>
<path d="M178.804 164.533C175.415 162.055 173.017 158.455 172.039 154.373C171.061 150.292 171.565 145.995 173.463 142.252C173.85 141.496 175.043 142.061 174.656 142.818C172.883 146.301 172.413 150.303 173.332 154.101C174.251 157.9 176.498 161.245 179.667 163.534C180.355 164.032 179.489 165.028 178.804 164.533Z" fill="white"/>
<path d="M170.232 199.734C178.724 198.494 186.437 194.099 191.832 187.427C192.366 186.765 193.365 187.629 192.831 188.289C187.204 195.222 179.169 199.779 170.329 201.051C169.486 201.171 169.394 199.854 170.232 199.734V199.734Z" fill="white"/>
<path d="M204.604 136.025C205.716 137.256 207.116 138.193 208.679 138.75C210.242 139.307 211.919 139.467 213.559 139.216C214.4 139.085 214.491 140.402 213.656 140.533C211.842 140.801 209.991 140.622 208.262 140.011C206.534 139.399 204.982 138.374 203.742 137.024C203.614 136.907 203.536 136.745 203.523 136.572C203.511 136.399 203.564 136.228 203.673 136.093C203.788 135.961 203.95 135.88 204.125 135.868C204.299 135.855 204.471 135.911 204.604 136.025Z" fill="white"/>
<path d="M287.38 203.202C286.857 203.298 286.335 203.395 285.807 203.502C278.788 204.841 271.889 206.747 265.178 209.203C264.656 209.384 264.13 209.576 263.614 209.773C247.51 215.861 232.676 224.885 219.867 236.387C214.774 240.968 210.037 245.93 205.697 251.23C199.704 258.55 193.789 266.963 185.958 271.735C185.146 272.243 184.304 272.699 183.436 273.102L138.323 254.395C138.241 254.301 138.155 254.218 138.074 254.123L136.238 253.459C136.443 253.17 136.662 252.875 136.866 252.586C136.984 252.417 137.112 252.254 137.23 252.085C137.312 251.975 137.395 251.864 137.462 251.759C137.489 251.722 137.517 251.686 137.54 251.659C137.608 251.554 137.681 251.464 137.745 251.37C138.962 249.716 140.193 248.068 141.437 246.425C141.441 246.415 141.441 246.415 141.456 246.408C150.97 233.916 161.612 222.108 173.708 212.29C174.072 211.995 174.44 211.689 174.824 211.402C180.301 207.007 186.128 203.067 192.247 199.621C195.604 197.744 199.053 196.039 202.583 194.512C211.709 190.582 221.397 188.112 231.291 187.192C251.015 185.361 271.106 189.857 286.234 202.244C286.62 202.561 286.997 202.874 287.38 203.202Z" fill="#F0F0F0"/>
<path d="M287.041 203.732C262.982 198.921 237.231 201.762 214.941 212.099C210.122 214.334 205.428 217.02 201.521 220.657C197.613 224.295 195.117 228.682 193.544 233.75C192.106 238.383 191.172 243.289 188.632 247.492C185.955 251.922 181.543 254.625 176.518 255.622C170.371 256.843 164.151 255.782 158.105 254.534C151.391 253.148 144.44 251.602 137.639 253.333C136.815 253.543 136.538 252.252 137.361 252.043C149.193 249.031 160.706 255.466 172.563 254.793C178.095 254.479 183.567 252.496 186.848 247.813C189.717 243.718 190.685 238.66 192.101 233.957C193.587 229.018 195.805 224.597 199.423 220.864C203.125 217.046 207.724 214.17 212.464 211.822C223.156 206.526 234.895 203.114 246.685 201.403C260.235 199.434 274.023 199.798 287.452 202.477C288.283 202.644 287.866 203.897 287.041 203.732V203.732Z" fill="white"/>
<path d="M222.009 208.357C220.795 204.339 221.049 200.021 222.726 196.173C224.403 192.326 227.394 189.199 231.164 187.352C231.928 186.981 232.54 188.151 231.775 188.522C228.261 190.236 225.476 193.148 223.922 196.735C222.368 200.321 222.147 204.344 223.3 208.079C223.549 208.89 222.257 209.164 222.009 208.357Z" fill="white"/>
<path d="M193.963 231.305C201.491 235.425 210.296 236.558 218.622 234.478C219.447 234.271 219.724 235.561 218.9 235.768C210.232 237.917 201.072 236.719 193.248 232.414C192.502 232.003 193.222 230.896 193.963 231.305Z" fill="white"/>
<path d="M259.778 201.124C259.924 202.776 260.478 204.366 261.39 205.752C262.303 207.137 263.545 208.274 265.006 209.061C265.756 209.463 265.036 210.569 264.29 210.171C262.68 209.294 261.31 208.036 260.298 206.508C259.287 204.979 258.665 203.226 258.488 201.402C258.457 201.232 258.491 201.056 258.585 200.91C258.679 200.764 258.825 200.66 258.994 200.618C259.165 200.582 259.343 200.615 259.49 200.709C259.637 200.804 259.741 200.953 259.778 201.124Z" fill="white"/>
<path d="M201.441 234.064C195.123 203.525 187.225 193.343 187.225 193.343L184.208 191.004L180.58 188.186L180.597 187.824L179.737 187.532L179.534 187.375L179.203 187.121L179.15 187.178L179.037 187.294L162.619 181.715L141.789 174.642L132.144 162.109C130.573 160.068 128.551 158.418 126.235 157.289C123.92 156.16 121.374 155.583 118.798 155.602L87.9937 155.83C83.8286 155.86 79.8257 157.448 76.7719 160.279L56.5247 179.054L24.9756 194.117L24.9223 194.063L24.591 194.3L19.7164 196.63L19.9176 197.677L16.9005 199.853C16.9005 199.853 9.00288 209.327 2.68477 237.743C1.07752 244.974 0.286365 260.484 0.000802491 279.596C-0.0135413 280.563 0.16453 281.523 0.524658 282.421C0.884786 283.318 1.41979 284.135 2.09856 284.824C2.77733 285.513 3.58632 286.06 4.47849 286.434C5.37067 286.807 6.32823 287 7.2955 287H175.805V287H196.838C197.804 286.999 198.761 286.807 199.653 286.434C200.544 286.061 201.353 285.514 202.031 284.826C202.71 284.138 203.245 283.322 203.606 282.426C203.967 281.529 204.145 280.57 204.132 279.604C203.853 258.807 203.063 241.905 201.441 234.064Z" fill="#3F3D56"/>
<path d="M223.061 26.6325C216.505 26.6325 210.218 29.236 205.582 33.8703C200.946 38.5046 198.342 44.79 198.342 51.3439C198.342 57.8978 200.946 64.1832 205.582 68.8175C210.218 73.4518 216.505 76.0553 223.061 76.0553H407.281C413.837 76.0553 420.124 73.4518 424.76 68.8175C429.396 64.1832 432 57.8978 432 51.3439C432 44.79 429.396 38.5046 424.76 33.8703C420.124 29.236 413.837 26.6325 407.281 26.6325H223.061Z" fill="#E5E5E5"/>
<path d="M223.061 31.6336C217.832 31.6336 212.817 33.7102 209.12 37.4066C205.422 41.103 203.345 46.1164 203.345 51.3439C203.345 56.5714 205.422 61.5848 209.12 65.2812C212.817 68.9776 217.832 71.0542 223.061 71.0542H407.281C412.51 71.0542 417.525 68.9776 421.223 65.2812C424.92 61.5848 426.997 56.5714 426.997 51.3439C426.997 46.1164 424.92 41.103 421.223 37.4066C417.525 33.7102 412.51 31.6336 407.281 31.6336H223.061Z" fill="white"/>
<path d="M108.234 144.033C130.522 144.033 148.59 125.97 148.59 103.689C148.59 81.4083 130.522 63.3459 108.234 63.3459C85.9453 63.3459 67.877 81.4083 67.877 103.689C67.877 125.97 85.9453 144.033 108.234 144.033Z" fill="#9E616A"/>
<path d="M97.9093 142.057C97.7369 141.678 97.565 141.297 97.3936 140.915C97.4596 140.917 97.525 140.927 97.5911 140.928L97.9093 142.057Z" fill="#2F2E41"/>
<path d="M66.754 65.1805C68.7951 63.5528 71.1807 62.0551 73.7904 62.1393C76.4 62.2234 79.0463 64.5796 78.5057 67.1332C83.2991 58.6488 90.9287 52.1234 100.055 48.7023C109.182 45.2812 119.222 45.183 128.414 48.4249C134.9 50.7125 141.261 55.289 142.751 62.0013C143.133 63.7244 143.215 65.6137 144.292 67.0129C145.648 68.777 148.245 69.1761 150.382 68.5555C150.404 68.5493 150.425 68.543 150.446 68.5367C150.808 68.4134 151.197 68.4013 151.566 68.5019C151.934 68.6025 152.263 68.8112 152.511 69.101C152.759 69.3908 152.915 69.7484 152.958 70.1275C153 70.5066 152.928 70.8898 152.75 71.2275L150.915 74.649C153.229 75.1645 155.632 75.1134 157.922 74.5001C158.302 74.4004 158.704 74.4207 159.072 74.5584C159.441 74.696 159.757 74.9441 159.979 75.2688C160.2 75.5935 160.316 75.9787 160.31 76.3717C160.304 76.7647 160.176 77.1462 159.945 77.4639C153.894 85.7694 143.784 91.1326 133.467 91.0696C126.134 91.0249 118.726 88.4986 111.59 90.1842C108.829 90.8364 106.249 92.0981 104.04 93.8769C101.831 95.6556 100.048 97.9063 98.8218 100.464C97.5961 103.021 96.9587 105.821 96.9563 108.656C96.954 111.492 97.5868 114.293 98.8083 116.852C96.6159 114.455 92.378 115.023 90.1354 117.373C87.893 119.723 87.3124 123.231 87.5384 126.471C87.8839 131.427 89.8262 136.097 91.8738 140.642C74.7065 140.101 58.4691 128.063 53.0035 111.78C47.5151 95.4294 53.2672 75.9359 66.754 65.1805Z" fill="#2F2E41"/>
<path opacity="0.2" d="M39.7217 224.844L51.0408 286.409L57.8326 287L39.7217 224.844Z" fill="black"/>
<path opacity="0.2" d="M164.404 220.201L153.085 286.364L146.293 287L164.404 220.201Z" fill="black"/>
<path d="M76.4089 44.4609C74.2386 45.3668 71.974 44.374 71.0243 42.1003C70.06 39.7918 70.9606 37.4484 73.1657 36.528C75.3709 35.6074 77.5952 36.6027 78.575 38.9484C79.5401 41.2589 78.6493 43.5257 76.4089 44.4609ZM72.2515 31.9841L70.5259 32.7045C70.0948 32.8823 69.6127 32.8919 69.1748 32.7313C68.737 32.5708 68.3754 32.2519 68.1616 31.8376L68.0762 31.6707C66.2195 28.3232 66.0069 24.2548 67.4477 19.5848C68.7824 15.3957 69.3368 12.4494 68.2219 9.78032C66.9329 6.69431 64.1803 5.72761 60.6702 7.12798C59.3088 7.69626 58.8756 7.68721 57.8042 8.74966C57.5712 8.98357 57.2934 9.16818 56.9875 9.29247C56.6815 9.41676 56.3536 9.47818 56.0234 9.47308C55.7042 9.46932 55.389 9.40134 55.0966 9.27318C54.8043 9.14503 54.5407 8.95933 54.3217 8.72716C53.8997 8.27973 53.6633 7.68889 53.6602 7.07397C53.6571 6.45904 53.8875 5.86585 54.305 5.41419C56.1057 3.52975 58.2777 2.03893 60.6838 1.03578C68.2255 -2.11237 72.0221 2.53542 73.7595 6.69476C75.4588 10.7631 74.5029 14.5378 72.967 19.4264C71.6799 23.4885 71.7548 26.4985 73.2169 29.4914C73.3225 29.7177 73.3812 29.9629 73.3896 30.2125C73.398 30.462 73.3558 30.7106 73.2656 30.9434C73.1755 31.1762 73.0392 31.3884 72.8649 31.5673C72.6906 31.7461 72.482 31.8879 72.2516 31.9841L72.2515 31.9841Z" fill="#DA5757"/>
<path d="M263.753 63.1296H227.1C226.983 63.1304 226.868 63.1081 226.76 63.0641C226.652 63.0201 226.554 62.9553 226.472 62.8732C226.389 62.7912 226.323 62.6936 226.279 62.5862C226.234 62.4787 226.211 62.3634 226.211 62.247C226.211 62.1306 226.234 62.0154 226.279 61.9079C226.323 61.8004 226.389 61.7029 226.472 61.6208C226.554 61.5388 226.652 61.4739 226.76 61.4299C226.868 61.3859 226.983 61.3637 227.1 61.3645H263.753C263.986 61.3661 264.209 61.4597 264.373 61.6251C264.537 61.7904 264.629 62.014 264.629 62.247C264.629 62.4801 264.537 62.7036 264.373 62.869C264.209 63.0343 263.986 63.128 263.753 63.1296Z" fill="#DA5757"/>
<path d="M310.249 63.4237H273.596C273.479 63.4245 273.364 63.4023 273.256 63.3583C273.148 63.3143 273.05 63.2494 272.968 63.1674C272.885 63.0854 272.82 62.9878 272.775 62.8803C272.73 62.7729 272.707 62.6576 272.707 62.5412C272.707 62.4248 272.73 62.3095 272.775 62.2021C272.82 62.0946 272.885 61.997 272.968 61.915C273.05 61.833 273.148 61.7681 273.256 61.7241C273.364 61.6801 273.479 61.6578 273.596 61.6586H310.249C310.365 61.6578 310.481 61.6801 310.588 61.7241C310.696 61.7681 310.794 61.833 310.877 61.915C310.959 61.997 311.025 62.0946 311.07 62.2021C311.115 62.3095 311.138 62.4248 311.138 62.5412C311.138 62.6576 311.115 62.7729 311.07 62.8803C311.025 62.9878 310.959 63.0854 310.877 63.1674C310.794 63.2494 310.696 63.3143 310.588 63.3583C310.481 63.4023 310.365 63.4245 310.249 63.4237Z" fill="#DA5757"/>
<path d="M356.745 63.7179H320.093C319.86 63.7163 319.637 63.6227 319.472 63.4573C319.308 63.292 319.216 63.0684 319.216 62.8354C319.216 62.6023 319.308 62.3788 319.472 62.2134C319.637 62.0481 319.86 61.9544 320.093 61.9528H356.745C356.862 61.952 356.977 61.9743 357.085 62.0183C357.193 62.0623 357.291 62.1272 357.374 62.2092C357.456 62.2912 357.522 62.3888 357.567 62.4962C357.611 62.6037 357.634 62.719 357.634 62.8354C357.634 62.9518 357.611 63.067 357.567 63.1745C357.522 63.282 357.456 63.3795 357.374 63.4616C357.291 63.5436 357.193 63.6085 357.085 63.6525C356.977 63.6965 356.862 63.7187 356.745 63.7179H356.745Z" fill="#DA5757"/>
<path d="M403.242 64.0121H366.589C366.356 64.0105 366.133 63.9168 365.968 63.7515C365.804 63.5862 365.712 63.3626 365.712 63.1295C365.712 62.8965 365.804 62.6729 365.968 62.5076C366.133 62.3423 366.356 62.2486 366.589 62.247H403.242C403.475 62.2486 403.698 62.3423 403.862 62.5076C404.026 62.6729 404.118 62.8965 404.118 63.1295C404.118 63.3626 404.026 63.5862 403.862 63.7515C403.698 63.9168 403.475 64.0105 403.242 64.0121Z" fill="#DA5757"/>
<path d="M245.345 55.0073C249.108 55.0073 252.158 51.9584 252.158 48.1974C252.158 44.4363 249.108 41.3874 245.345 41.3874C241.583 41.3874 238.533 44.4363 238.533 48.1974C238.533 51.9584 241.583 55.0073 245.345 55.0073Z" fill="#DA5757"/>
<path d="M292.123 55.0073C295.885 55.0073 298.935 51.9584 298.935 48.1974C298.935 44.4363 295.885 41.3874 292.123 41.3874C288.36 41.3874 285.311 44.4363 285.311 48.1974C285.311 51.9584 288.36 55.0073 292.123 55.0073Z" fill="#DA5757"/>
<path d="M338.9 55.0073C342.662 55.0073 345.712 51.9584 345.712 48.1974C345.712 44.4363 342.662 41.3874 338.9 41.3874C335.138 41.3874 332.088 44.4363 332.088 48.1974C332.088 51.9584 335.138 55.0073 338.9 55.0073Z" fill="#DA5757"/>
<path d="M385.677 55.0073C389.44 55.0073 392.49 51.9584 392.49 48.1974C392.49 44.4363 389.44 41.3874 385.677 41.3874C381.915 41.3874 378.865 44.4363 378.865 48.1974C378.865 51.9584 381.915 55.0073 385.677 55.0073Z" fill="#DA5757"/>
</g>
<defs>
<clipPath id="clip0_117_1832">
<rect width="432" height="287" fill="white"/>
</clipPath>
</defs>
</svg>
