<svg width="240" height="234" viewBox="0 0 240 234" fill="none" xmlns="http://www.w3.org/2000/svg">
<g clip-path="url(#clip0_164_2002)">
<path d="M153.076 52.4543H140.306V161.387C140.306 163.096 139.969 164.788 139.316 166.368C138.662 167.947 137.704 169.381 136.496 170.59C135.288 171.798 133.854 172.757 132.276 173.411C130.698 174.065 129.007 174.402 127.299 174.402H29.668V174.526C29.668 176.235 30.0044 177.928 30.6581 179.507C31.3117 181.086 32.2699 182.521 33.4777 183.729C34.6855 184.938 36.1194 185.896 37.6976 186.55C39.2757 187.204 40.9671 187.541 42.6752 187.541H153.076C154.784 187.541 156.475 187.204 158.053 186.55C159.631 185.896 161.065 184.938 162.273 183.729C163.481 182.521 164.439 181.086 165.093 179.507C165.747 177.928 166.083 176.235 166.083 174.526V65.4691C166.083 62.0174 164.713 58.707 162.273 56.2663C159.834 53.8255 156.525 52.4543 153.076 52.4543Z" fill="#F2F2F2"/>
<path d="M213.61 225.565C213.836 225.575 214.06 225.516 214.251 225.395C214.442 225.274 214.592 225.097 214.679 224.888C214.766 224.679 214.787 224.448 214.739 224.227C214.691 224.006 214.576 223.805 214.41 223.651L214.334 223.35C214.344 223.326 214.354 223.302 214.364 223.278C214.592 222.74 214.974 222.281 215.461 221.959C215.949 221.637 216.521 221.466 217.105 221.468C217.689 221.471 218.259 221.646 218.745 221.971C219.23 222.297 219.608 222.758 219.832 223.298C220.726 225.453 221.864 227.612 222.145 229.89C222.268 230.897 222.216 231.918 221.991 232.908C224.091 228.324 225.182 223.341 225.189 218.298C225.189 217.033 225.119 215.768 224.978 214.511C224.862 213.48 224.701 212.456 224.495 211.44C223.369 205.926 220.952 200.757 217.442 196.359C215.744 195.432 214.37 194.006 213.506 192.273C213.193 191.65 212.972 190.985 212.85 190.299C213.041 190.324 213.572 187.404 213.428 187.225C213.695 186.82 214.173 186.618 214.464 186.223C215.915 184.255 217.913 184.598 218.956 187.272C221.185 188.398 221.207 190.264 219.839 192.059C218.969 193.201 218.85 194.747 218.086 195.969C218.165 196.07 218.246 196.167 218.325 196.268C219.761 198.115 221.012 200.098 222.061 202.19C221.806 199.847 222.11 197.477 222.949 195.275C223.799 193.223 225.393 191.494 226.796 189.72C227.168 189.243 227.672 188.887 228.245 188.697C228.818 188.507 229.435 188.492 230.017 188.652C230.599 188.813 231.121 189.143 231.516 189.6C231.91 190.057 232.161 190.621 232.236 191.22C232.239 191.246 232.241 191.273 232.244 191.299C232.036 191.416 231.832 191.541 231.632 191.673C231.381 191.841 231.187 192.081 231.074 192.361C230.962 192.641 230.937 192.948 231.002 193.243C231.067 193.538 231.22 193.806 231.44 194.012C231.66 194.218 231.938 194.353 232.236 194.399L232.266 194.404C232.192 195.156 232.061 195.901 231.874 196.633C233.674 203.599 229.787 206.137 224.237 206.251C224.114 206.314 223.995 206.376 223.873 206.436C224.926 209.424 225.587 212.537 225.839 215.696C225.981 217.559 225.973 219.431 225.814 221.294L225.823 221.228C226.225 219.157 227.329 217.288 228.949 215.938C231.354 213.961 234.753 213.233 237.348 211.644C237.623 211.466 237.944 211.372 238.272 211.371C238.599 211.37 238.921 211.463 239.197 211.639C239.474 211.815 239.694 212.066 239.833 212.363C239.972 212.661 240.022 212.991 239.979 213.316L239.969 213.386C239.582 213.543 239.205 213.725 238.841 213.929C238.633 214.047 238.428 214.172 238.229 214.304C237.978 214.472 237.784 214.711 237.671 214.991C237.559 215.271 237.534 215.579 237.599 215.874C237.664 216.168 237.817 216.436 238.037 216.643C238.257 216.849 238.534 216.984 238.832 217.03L238.863 217.035C238.885 217.038 238.904 217.041 238.926 217.044C238.265 218.623 237.337 220.077 236.183 221.341C235.058 227.422 230.223 227.999 225.051 226.228H225.047C224.48 228.696 223.658 231.098 222.594 233.395H213.83C213.798 233.297 213.77 233.197 213.742 233.099C214.553 233.15 215.367 233.102 216.167 232.955C215.517 232.156 214.866 231.352 214.216 230.553C214.202 230.539 214.188 230.523 214.175 230.506C213.845 230.098 213.512 229.692 213.183 229.284L213.182 229.283C213.165 228.031 213.308 226.781 213.61 225.565L213.61 225.565Z" fill="#F2F2F2"/>
<path d="M117.079 37.6365C117.399 38.1216 117.82 38.5313 118.314 38.8373C118.808 39.1434 119.362 39.3385 119.939 39.4091C120.515 39.4797 121.1 39.4242 121.653 39.2463C122.206 39.0685 122.714 38.7725 123.142 38.379L141.363 46.6045L144.876 42.121L123.163 32.5097C122.447 31.839 121.511 31.4543 120.531 31.4284C119.551 31.4025 118.595 31.7372 117.845 32.3692C117.095 33.0011 116.603 33.8864 116.462 34.8572C116.32 35.828 116.54 36.8169 117.079 37.6365H117.079Z" fill="#A0616A"/>
<path d="M195.278 42.7656L197.085 53.0124C197.17 53.4904 197.153 53.9808 197.037 54.4521C196.92 54.9234 196.707 55.3651 196.41 55.749C196.113 56.1328 195.739 56.4503 195.312 56.681C194.885 56.9116 194.415 57.0505 193.931 57.0885L163.223 59.5048L127.127 43.3407L131.438 35.152L162.773 45.0805L195.278 42.7656Z" fill="#DA5757"/>
<path d="M123.408 35.422H13.0073C5.82355 35.422 0 41.2488 0 48.4367V157.494C0 164.682 5.82355 170.509 13.0073 170.509H123.408C130.591 170.509 136.415 164.682 136.415 157.494V48.4367C136.415 41.2488 130.591 35.422 123.408 35.422Z" fill="#F2F2F2"/>
<path d="M13.0081 38.0984C11.6512 38.0984 10.3077 38.3658 9.05408 38.8853C7.80051 39.4049 6.66149 40.1664 5.70204 41.1264C4.7426 42.0864 3.98152 43.2261 3.46227 44.4804C2.94303 45.7347 2.67578 47.079 2.67578 48.4367V157.494C2.67578 160.236 3.76436 162.865 5.70204 164.804C7.63973 166.743 10.2678 167.832 13.0081 167.832H83.4683C90.0702 167.832 96.6074 166.531 102.707 164.003C108.806 161.475 114.348 157.77 119.016 153.099C123.684 148.428 127.388 142.883 129.914 136.78C132.44 130.678 133.741 124.137 133.741 117.531V48.4367C133.741 47.079 133.473 45.7347 132.954 44.4804C132.435 43.2261 131.674 42.0864 130.714 41.1264C129.755 40.1664 128.616 39.4049 127.362 38.8853C126.109 38.3658 124.765 38.0984 123.408 38.0984H13.0081Z" fill="white"/>
<path d="M99.0703 71.1954H37.1048C36.5362 71.1954 35.9909 70.9694 35.5889 70.5671C35.1868 70.1649 34.9609 69.6192 34.9609 69.0503C34.9609 68.4814 35.1868 67.9358 35.5889 67.5335C35.9909 67.1312 36.5362 66.9052 37.1048 66.9052H99.0703C99.6389 66.9052 100.184 67.1312 100.586 67.5335C100.988 67.9358 101.214 68.4814 101.214 69.0503C101.214 69.6192 100.988 70.1649 100.586 70.5671C100.184 70.9694 99.6389 71.1954 99.0703 71.1954Z" fill="#F2F2F2"/>
<path d="M99.0703 116.94H37.1048C36.5362 116.94 35.9909 116.714 35.5889 116.311C35.1868 115.909 34.9609 115.363 34.9609 114.794C34.9609 114.226 35.1868 113.68 35.5889 113.278C35.9909 112.875 36.5362 112.649 37.1048 112.649H99.0703C99.6389 112.649 100.184 112.875 100.586 113.278C100.988 113.68 101.214 114.226 101.214 114.794C101.214 115.363 100.988 115.909 100.586 116.311C100.184 116.714 99.6389 116.94 99.0703 116.94Z" fill="#F2F2F2"/>
<path d="M124.232 94.0825H11.9408C11.3722 94.0825 10.8269 93.8565 10.4248 93.4542C10.0227 93.0519 9.79688 92.5063 9.79688 91.9374C9.79688 91.3685 10.0227 90.8228 10.4248 90.4206C10.8269 90.0183 11.3722 89.7923 11.9408 89.7923H124.232C124.801 89.7923 125.346 90.0183 125.748 90.4206C126.15 90.8228 126.376 91.3685 126.376 91.9374C126.376 92.5063 126.15 93.0519 125.748 93.4542C125.346 93.8565 124.801 94.0825 124.232 94.0825Z" fill="#F2F2F2"/>
<path d="M191.397 87.9295L180.211 111.775L223.243 107.414L214.26 84.523L191.397 87.9295Z" fill="#A0616A"/>
<path d="M201.402 224.983L197.321 224.949L195.516 208.836L201.537 208.887L201.402 224.983Z" fill="#A0616A"/>
<path d="M188.334 231.475C188.33 231.959 188.519 232.424 188.858 232.769C189.197 233.115 189.659 233.311 190.143 233.316L198.254 233.384L199.674 230.503L200.196 233.398L203.257 233.426L202.484 223.101L201.419 223.03L197.075 222.731L195.674 222.637L195.65 225.558L189.133 229.98C188.889 230.146 188.689 230.369 188.55 230.629C188.411 230.889 188.336 231.18 188.334 231.475Z" fill="#2F2E41"/>
<path d="M156.251 225.002L152.361 223.769L155.367 207.837L161.108 209.655L156.251 225.002Z" fill="#A0616A"/>
<path d="M141.852 227.365C141.707 227.826 141.75 228.327 141.973 228.756C142.195 229.186 142.579 229.51 143.04 229.656L150.774 232.106L152.977 229.77L152.626 232.691L155.543 233.617L157.836 223.521L156.839 223.14L152.776 221.577L151.464 221.075L150.582 223.86L143.055 226.171C142.773 226.258 142.516 226.412 142.307 226.62C142.097 226.828 141.941 227.083 141.852 227.365Z" fill="#2F2E41"/>
<path d="M221.283 100.708L182.156 107.882C182.156 107.882 175.881 112.579 177.56 114.261C179.238 115.943 179.499 115.683 178.396 116.786C177.293 117.89 174.908 119.365 174.885 120.331C174.861 121.296 157.352 164.607 157.352 164.607C157.352 164.607 159.298 163.634 157.838 165.094C156.379 166.554 156.379 167.76 156.379 167.76L149.57 213.758L160.628 214.409L171.457 172.474L195.609 133.297C195.609 133.297 198.005 168.233 198.106 170.556C198.206 172.88 199.665 169.96 198.206 172.88C196.747 175.8 195.775 173.853 196.747 175.8C197.72 177.746 193.243 217.376 193.243 217.376H203.337L224.985 135.235C224.985 135.235 232.687 111.752 221.283 100.708Z" fill="#2F2E41"/>
<path d="M209.757 35.0062L194.084 33.3768L190.024 38.6516L185.293 41.1725C183.292 42.2393 181.639 43.8605 180.534 45.8422C179.429 47.8239 178.917 50.0821 179.061 52.3469L184.589 84.5231C184.589 84.5231 179.919 95.0438 183.13 97.6624C186.34 100.281 180.648 106.766 187.507 103.502C194.367 100.238 223.984 103.989 223.984 103.989L217.662 85.983L222.385 68.29L222.905 53.4546C223.002 50.6824 222.18 47.9559 220.566 45.7001C218.953 43.4443 216.639 41.786 213.985 40.9836L213.325 40.7839L209.757 35.0062Z" fill="#DA5757"/>
<path d="M231.335 22.9841C231.437 27.4042 229.786 31.6842 227.415 35.4435C226.71 33.2489 225.443 31.2515 224.122 29.3474C224.788 33.4665 224.079 37.6903 222.104 41.3653C222.034 41.4151 221.962 41.4614 221.887 41.5039C219.954 42.6675 217.503 43.1388 215.412 42.2984C219.733 37.638 220.283 29.9164 216.66 24.689C215.635 23.2057 214.308 21.8939 213.673 20.2059C212.67 17.5125 213.634 14.5471 214.242 11.7391C214.811 9.12561 214.911 6.01557 213.158 4.10023C213.345 3.83257 213.6 3.6195 213.897 3.48288C214.193 3.34625 214.521 3.29098 214.846 3.32271C215.926 3.47541 216.713 4.41505 217.214 5.38281C217.715 6.35055 218.045 7.42313 218.743 8.25902C220.036 9.82357 222.237 10.1935 224.092 11.018C228.585 13.0204 231.227 18.0657 231.335 22.9841Z" fill="#2F2E41"/>
<path d="M115.584 233.421C115.584 233.497 115.599 233.572 115.628 233.643C115.657 233.713 115.699 233.777 115.753 233.831C115.807 233.885 115.871 233.927 115.941 233.956C116.011 233.985 116.087 234 116.163 234H239.353C239.507 234 239.654 233.939 239.762 233.83C239.871 233.722 239.932 233.575 239.932 233.421C239.932 233.267 239.871 233.12 239.762 233.011C239.654 232.903 239.507 232.842 239.353 232.842H116.163C116.087 232.842 116.011 232.856 115.941 232.885C115.871 232.914 115.807 232.957 115.753 233.011C115.699 233.065 115.657 233.129 115.628 233.199C115.599 233.269 115.584 233.345 115.584 233.421Z" fill="#CCCCCC"/>
<path d="M232.305 125.43C234.722 125.43 236.682 123.47 236.682 121.051C236.682 118.632 234.722 116.671 232.305 116.671C229.887 116.671 227.928 118.632 227.928 121.051C227.928 123.47 229.887 125.43 232.305 125.43Z" fill="#DA5757"/>
<path d="M193.517 20.4568C193.773 19.5577 192.004 25.0538 192.858 25.153C196.747 25.5995 202.086 27.9235 204.795 29.0078C204.917 28.9936 205.039 28.9794 205.157 28.9617C205.448 28.9298 205.731 28.8838 206.011 28.8306C212.318 27.6365 214.744 17.942 214.744 17.8534C214.744 17.4176 213.698 5.44751 212.052 5.27037C211.619 5.22341 211.184 5.19975 210.749 5.1995H206.663C205.817 5.01717 204.96 4.89287 204.097 4.82746H204.09C195.863 4.20029 189.376 9.21755 189.983 15.3226C189.986 15.3297 189.994 15.3368 189.997 15.3439C190.173 15.6061 190.327 15.8541 190.464 16.0915C190.596 16.3148 190.708 16.5273 190.804 16.7293C191.554 18.2884 189.627 20.2501 190.905 20.6163C192.605 21.1033 186.434 37.1103 193.162 37.1103C189.89 38.0413 192.808 22.9371 193.517 20.4568Z" fill="#2F2E41"/>
<path d="M200.861 29.849C206.205 29.849 210.536 25.5147 210.536 20.168C210.536 14.8214 206.205 10.487 200.861 10.487C195.517 10.487 191.186 14.8214 191.186 20.168C191.186 25.5147 195.517 29.849 200.861 29.849Z" fill="#A0616A"/>
<path d="M189.982 15.8506C190.144 15.9356 190.302 16.0135 190.463 16.0915C190.632 16.173 190.8 16.2545 190.969 16.3289C194.209 17.7994 196.846 17.9623 198.446 15.8506C198.489 14.7394 198.738 13.6459 199.182 12.6262C199.103 13.7658 199.404 14.8993 200.036 15.8506H203.257C206.576 18.0545 208.28 18.2848 205.977 25.5202C205.335 27.5363 202.781 39.2681 203.786 41.0078C204.076 40.9759 207.168 28.126 207.448 28.0729C213.755 26.8788 217.763 16.4813 217.25 15.8931C217.253 14.2205 216.868 12.5699 216.127 11.0707C215.189 9.17123 213.728 7.58018 211.915 6.48568C210.834 5.96143 209.708 5.53798 208.55 5.22073C208.521 5.21363 208.496 5.20654 208.467 5.19947C208.112 5.10379 207.749 5.01521 207.387 4.9408C206.638 4.78264 205.881 4.66788 205.12 4.59711C205.066 4.59356 205.012 4.59001 204.962 4.59001C204.657 4.59072 204.359 4.67268 204.097 4.82743C204.093 4.82743 204.093 4.83096 204.09 4.83096C203.903 4.94041 203.739 5.08617 203.609 5.25968C203.38 5.55164 203.256 5.91247 203.257 6.2837H199.67C199.537 6.2837 199.404 6.28723 199.271 6.29431C196.877 6.37619 194.599 7.34922 192.884 9.02297C191.168 10.6967 190.139 12.9507 189.997 15.3439C189.986 15.5139 189.982 15.6805 189.982 15.8506Z" fill="#2F2E41"/>
<path d="M211.138 12.7558C214.658 12.7558 217.512 9.90032 217.512 6.3779C217.512 2.85548 214.658 0 211.138 0C207.618 0 204.764 2.85548 204.764 6.3779C204.764 9.90032 207.618 12.7558 211.138 12.7558Z" fill="#2F2E41"/>
<path d="M232.355 122.857C232.666 122.366 232.866 121.813 232.943 121.237C233.02 120.661 232.97 120.075 232.798 119.52C232.627 118.965 232.336 118.454 231.947 118.022C231.559 117.59 231.081 117.248 230.547 117.019L230.578 97.0172L225.051 95.6483L225.187 119.405C224.869 120.333 224.902 121.345 225.28 122.25C225.658 123.155 226.355 123.89 227.239 124.316C228.122 124.741 229.131 124.828 230.074 124.559C231.017 124.29 231.828 123.684 232.355 122.857V122.857Z" fill="#A0616A"/>
<path d="M204.982 49.3828L213.583 43.5342C213.985 43.2613 214.438 43.0755 214.916 42.9885C215.393 42.9015 215.883 42.9153 216.355 43.0291C216.827 43.1429 217.269 43.3541 217.654 43.6491C218.04 43.9442 218.359 44.3166 218.592 44.7425L233.379 71.7795L233.436 111.348L224.203 110.769L220.414 78.1016L204.982 49.3828Z" fill="#DA5757"/>
<path d="M138.928 139.119H47.0054C45.006 139.119 43.0885 139.914 41.6748 141.329C40.261 142.743 39.4668 144.662 39.4668 146.662C39.4668 148.663 40.261 150.581 41.6748 151.996C43.0885 153.411 45.006 154.205 47.0054 154.205H138.928C140.927 154.205 142.844 153.411 144.258 151.996C145.672 150.581 146.466 148.663 146.466 146.662C146.466 144.662 145.672 142.743 144.258 141.329C142.844 139.914 140.927 139.119 138.928 139.119Z" fill="white"/>
<path d="M138.928 154.692H47.0054C44.8771 154.692 42.8359 153.846 41.3309 152.34C39.8259 150.834 38.9805 148.792 38.9805 146.662C38.9805 144.533 39.8259 142.49 41.3309 140.985C42.8359 139.479 44.8771 138.633 47.0054 138.633H138.928C141.056 138.633 143.097 139.479 144.602 140.985C146.107 142.49 146.952 144.533 146.952 146.662C146.952 148.792 146.107 150.834 144.602 152.34C143.097 153.846 141.056 154.692 138.928 154.692ZM47.0054 139.606C45.135 139.606 43.3413 140.35 42.0187 141.673C40.6962 142.996 39.9532 144.791 39.9532 146.662C39.9532 148.534 40.6962 150.329 42.0187 151.652C43.3413 152.975 45.135 153.719 47.0054 153.719H138.928C140.798 153.719 142.592 152.975 143.914 151.652C145.237 150.329 145.98 148.534 145.98 146.662C145.98 144.791 145.237 142.996 143.914 141.673C142.592 140.35 140.798 139.606 138.928 139.606H47.0054Z" fill="#DA5757"/>
<path d="M144.346 172.037H103.781C103.212 172.037 102.667 171.811 102.265 171.409C101.863 171.007 101.637 170.461 101.637 169.892C101.637 169.323 101.863 168.777 102.265 168.375C102.667 167.973 103.212 167.747 103.781 167.747H144.346C144.915 167.747 145.46 167.973 145.862 168.375C146.264 168.777 146.49 169.323 146.49 169.892C146.49 170.461 146.264 171.007 145.862 171.409C145.46 171.811 144.915 172.037 144.346 172.037Z" fill="#DA5757"/>
</g>
<defs>
<clipPath id="clip0_164_2002">
<rect width="240" height="234" fill="white"/>
</clipPath>
</defs>
</svg>
