<svg width="70" height="70" viewBox="0 0 70 70" fill="none" xmlns="http://www.w3.org/2000/svg">
<g clip-path="url(#clip0_119_2055)">
<path d="M35.6264 45.6945C41.9013 45.6945 46.9881 40.6077 46.9881 34.3328C46.9881 28.0579 41.9013 22.9711 35.6264 22.9711C29.3515 22.9711 24.2646 28.0579 24.2646 34.3328C24.2646 40.6077 29.3515 45.6945 35.6264 45.6945Z" fill="#A0616A"/>
<path d="M26.2222 48.2386L28.5906 42.186L40.8274 40.3439L42.1422 53.7421L29.7738 54.0053L26.2222 48.2386Z" fill="#A0616A"/>
<path d="M47.098 36.4291C46.9505 37.0198 46.6524 38.4264 46.1869 38.4334C45.8066 38.4389 45.4426 32.3367 45.8225 31.3273C46.2589 30.1678 45.1122 28.701 44.2483 27.948C42.6951 26.5941 39.2474 29.5012 35.7416 28.1843C35.6486 28.1494 35.6671 28.1534 34.5601 27.7117C31.1535 26.3525 30.9745 26.3133 30.7793 26.2939C29.1279 26.1305 27.1126 27.4818 26.2896 29.1295C25.4342 30.8422 26.1489 32.3112 25.3444 36.4547C25.2507 36.9377 25.1035 37.626 24.8718 37.6362C24.4484 37.6547 24.0349 35.393 23.9267 34.8006C23.473 32.3188 23.0356 29.9261 23.9267 27.2391C24.0239 26.946 24.6229 25.8582 25.817 23.6946C27.5374 20.5777 28.4026 19.0134 28.6526 18.7323C30.4459 16.7157 33.71 14.8761 36.4505 15.6605C37.8356 16.0569 37.5872 16.6943 39.286 17.3146C42.3134 18.4199 44.9446 17.0681 45.4298 18.0235C45.6869 18.5295 44.9676 18.9467 44.9572 19.9138C44.9393 21.5732 47.038 22.0528 48.2654 23.6946C48.9252 24.5773 50.0545 24.5867 47.098 36.4291L47.098 36.4291V36.4291Z" fill="#2F2E41"/>
<path d="M61.1735 58.2382C60.7156 58.7527 60.2406 59.2567 59.7485 59.7488C53.1379 66.3592 44.3485 70 34.9998 70C26.9195 70 19.2577 67.2803 13.059 62.2737C13.055 62.2712 13.0524 62.2685 13.0485 62.2645C12.2261 61.6015 11.4301 60.8962 10.6616 60.1514C10.6761 60.0356 10.6919 59.9211 10.709 59.8079C10.8169 59.0448 10.9366 58.3171 11.0708 57.6474C12.1695 52.158 26.6261 46.3948 27.0024 46.2448C27.0077 46.2435 27.0103 46.2422 27.0103 46.2422C27.0103 46.2422 28.8709 53.1001 36.8432 53.012C42.2735 52.9527 41.2208 46.2422 41.2208 46.2422C41.2208 46.2422 41.2866 46.2553 41.4103 46.2816C42.9787 46.6146 53.8682 49.0066 58.1643 52.2712C59.4735 53.2659 60.4129 55.3844 61.0879 57.9106C61.1169 58.0185 61.1445 58.129 61.1735 58.2382Z" fill="#6C63FF"/>
<path d="M59.7487 10.2513C53.1382 3.64091 44.3487 0 35 0C25.6513 0 16.8619 3.64091 10.2513 10.2513C3.64081 16.8619 0 25.6513 0 35C0 43.533 3.0329 51.6 8.59079 57.9698C9.12106 58.579 9.675 59.1724 10.2513 59.7488C10.3868 59.8842 10.5237 60.0198 10.6618 60.1514C11.4303 60.8961 12.2263 61.6014 13.0487 62.2645C13.0526 62.2685 13.0553 62.2712 13.0592 62.2737C19.2579 67.2803 26.9198 70 35 70C44.3487 70 53.1382 66.3592 59.7487 59.7488C60.2408 59.2567 60.7158 58.7527 61.1737 58.2382C66.8803 51.8277 70 43.654 70 35C70 25.6513 66.3592 16.8619 59.7487 10.2513ZM61.0882 57.9105C60.0527 59.0882 58.9395 60.1961 57.7553 61.2238C55.5092 63.1777 53.0092 64.8461 50.3132 66.1751C49.3671 66.6422 48.3974 67.0671 47.4053 67.4474C43.5513 68.9264 39.3684 69.7368 35 69.7368C30.7842 69.7368 26.7421 68.9817 23.0013 67.6001C21.4658 67.0342 19.9816 66.3619 18.5566 65.5921C18.3474 65.479 18.1395 65.3645 17.9329 65.2475C16.8461 64.6316 15.7947 63.9593 14.7855 63.2329C13.3395 62.1961 11.9763 61.0501 10.7092 59.8079C9.99868 59.1118 9.31975 58.3869 8.67107 57.633C3.43291 51.5488 0.263158 43.6382 0.263158 35C0.263158 15.8461 15.846 0.263158 35 0.263158C54.154 0.263158 69.7368 15.8461 69.7368 35C69.7368 43.7711 66.4698 51.7921 61.0882 57.9105Z" fill="#3F3D56"/>
</g>
<defs>
<clipPath id="clip0_119_2055">
<rect width="70" height="70" fill="white"/>
</clipPath>
</defs>
</svg>
