<svg width="325" height="224" viewBox="0 0 325 224" fill="none" xmlns="http://www.w3.org/2000/svg">
<g clip-path="url(#clip0_110_3735)">
<path d="M113.947 201.24L114.049 200.834C114.072 200.744 116.374 191.838 123.322 187.001C130.271 182.165 139.4 183.116 139.491 183.126L139.907 183.172L139.805 183.579C139.782 183.668 137.48 192.575 130.532 197.411C123.583 202.247 114.455 201.297 114.363 201.287L113.947 201.24ZM123.739 187.603C117.864 191.692 115.417 198.801 114.877 200.593C116.741 200.712 124.246 200.895 130.115 196.81C135.984 192.725 138.436 185.612 138.977 183.819C137.112 183.701 129.608 183.518 123.739 187.603Z" fill="#F1F1F1"/>
<path d="M126.262 189.764C122.757 197.439 114.501 201.177 114.501 201.177C114.501 201.177 111.927 192.47 115.431 184.795C118.936 177.119 127.192 173.382 127.192 173.382C127.192 173.382 129.766 182.089 126.262 189.764Z" fill="#F1F1F1"/>
<path d="M37.3007 198.465C33.5218 186.815 33.2124 173.574 39.5989 162.765C42.3138 158.17 46.1295 154.203 50.8096 151.609C56.2079 148.617 62.4396 147.638 68.5361 147.504C81.7924 147.21 94.9585 150.42 108.216 148.761C114.164 148.016 120.097 146.346 125.196 143.107C129.605 140.306 133.431 136.387 135.689 131.634C137.889 127.098 138.387 121.92 137.092 117.046C135.839 112.437 132.89 108.127 128.577 105.921C124.659 103.915 119.85 103.862 115.801 105.521C111.446 107.305 108.31 110.995 107.643 115.718C106.81 121.61 109.457 127.439 112.403 132.371C115.238 137.118 118.676 141.574 122.853 145.213C126.899 148.737 131.67 151.516 136.917 152.751C141.896 153.922 147.265 153.818 152.105 152.088C157.098 150.298 161.259 146.729 163.797 142.062C166.63 136.926 167.619 130.991 167.522 125.176C167.407 118.309 165.961 111.511 164.671 104.792C163.362 97.9765 161.956 91.1812 160.451 84.4058C159.718 81.1032 158.962 77.8059 158.183 74.5139C158.02 73.8266 156.964 74.1175 157.127 74.8058C160.226 87.9086 163.123 101.116 165.322 114.404C166.365 120.712 167.019 127.254 165.71 133.574C164.607 138.904 162.13 144.071 157.895 147.597C149.813 154.326 137.757 153.474 129.107 148.397C124.441 145.658 120.484 141.823 117.207 137.537C113.82 133.106 110.665 128.039 109.236 122.6C108.497 119.792 108.287 116.795 109.14 113.986C109.798 111.826 111.089 109.914 112.845 108.498C116.135 105.823 120.785 104.862 124.896 105.764C129.528 106.78 133.111 110.274 135.034 114.524C137.03 119.015 137.263 124.095 135.686 128.751C134.027 133.664 130.588 137.864 126.454 140.918C121.747 144.395 116.138 146.367 110.41 147.339C97.5593 149.519 84.6502 146.668 71.7754 146.406C65.9083 146.287 59.8945 146.739 54.3493 148.795C49.4093 150.64 45.0464 153.766 41.7064 157.855C34.3797 166.765 32.3516 178.589 34.0859 189.798C34.5651 192.837 35.2869 195.833 36.2445 198.757C36.4615 199.426 37.5196 199.14 37.3007 198.465L37.3007 198.465Z" fill="#E5E5E5"/>
<path d="M39.8378 195.816H32.9004V201.306H39.8378V195.816Z" fill="#DA5757"/>
<path d="M157.727 74.6483H281.463C304.903 74.6483 323.905 61.2551 323.905 37.7568V37.7568C323.905 14.2585 304.903 4.46445 281.463 4.46445H242.611C195.731 4.46445 157.727 27.6518 157.727 74.6482V74.6483Z" fill="white"/>
<path d="M281.463 75.7463H156.631V74.6482C156.631 52.1626 165.378 33.6313 181.927 21.0576C197.159 9.48403 218.143 3.36644 242.611 3.36644H281.463C294.013 3.36644 304.608 6.14401 312.102 11.3991C320.66 17.4007 325 26.2687 325 37.7568C325 49.2744 320.562 58.994 312.166 65.865C304.38 72.2371 293.476 75.7463 281.463 75.7463ZM158.828 73.5501H281.463C306.193 73.5501 322.809 59.166 322.809 37.7568C322.809 8.69961 293.894 5.56262 281.463 5.56262H242.611C202.396 5.56262 159.445 23.4484 158.828 73.5501H158.828Z" fill="#E5E5E5"/>
<path d="M228.996 26.3974H214.381V29.9245H228.996V26.3974Z" fill="#DA5757"/>
<path d="M279.607 26.3974H274.465V29.9245H279.607V26.3974Z" fill="#DA5757"/>
<path d="M289.892 26.3974H284.75V29.9245H289.892V26.3974Z" fill="#DA5757"/>
<path d="M269.052 26.3974H234.139V29.9245H269.052V26.3974Z" fill="#DA5757"/>
<path d="M210.592 49.1882H195.977V52.7154H210.592V49.1882Z" fill="#DA5757"/>
<path d="M261.203 49.1882H256.061V52.7154H261.203V49.1882Z" fill="#DA5757"/>
<path d="M271.488 49.1882H266.346V52.7154H271.488V49.1882Z" fill="#DA5757"/>
<path d="M250.648 49.1882H215.734V52.7154H250.648V49.1882Z" fill="#DA5757"/>
<path d="M270.947 34.2656H256.332V37.7928H270.947V34.2656Z" fill="#DA5757"/>
<path d="M290.705 34.2656H276.09V37.7928H290.705V34.2656Z" fill="#DA5757"/>
<path d="M300.988 34.2656H295.846V37.7928H300.988V34.2656Z" fill="#DA5757"/>
<path d="M211.404 34.2656H206.262V37.7928H211.404V34.2656Z" fill="#DA5757"/>
<path d="M251.461 34.2656H216.547V37.7928H251.461V34.2656Z" fill="#DA5757"/>
<path d="M240.635 41.8626H226.02V45.3898H240.635V41.8626Z" fill="#DA5757"/>
<path d="M220.877 41.8626H206.262V45.3898H220.877V41.8626Z" fill="#DA5757"/>
<path d="M300.988 41.8626H295.846V45.3898H300.988V41.8626Z" fill="#DA5757"/>
<path d="M290.705 41.8626H285.562V45.3898H290.705V41.8626Z" fill="#DA5757"/>
<path d="M280.42 41.8626H245.506V45.3898H280.42V41.8626Z" fill="#DA5757"/>
<path d="M139.478 201.672H0.365125C0.268288 201.672 0.175417 201.634 0.106942 201.565C0.0384681 201.496 0 201.403 0 201.306C0 201.209 0.0384681 201.116 0.106942 201.047C0.175417 200.979 0.268288 200.94 0.365125 200.94H139.478C139.575 200.94 139.667 200.979 139.736 201.047C139.804 201.116 139.843 201.209 139.843 201.306C139.843 201.403 139.804 201.496 139.736 201.565C139.667 201.634 139.575 201.672 139.478 201.672Z" fill="#CBCBCB"/>
<path d="M84.3445 224H41.6249C41.5281 224 41.4352 223.961 41.3667 223.893C41.2982 223.824 41.2598 223.731 41.2598 223.634C41.2598 223.537 41.2982 223.444 41.3667 223.375C41.4352 223.306 41.5281 223.268 41.6249 223.268H84.3445C84.4413 223.268 84.5342 223.306 84.6027 223.375C84.6712 223.444 84.7096 223.537 84.7096 223.634C84.7096 223.731 84.6712 223.824 84.6027 223.893C84.5342 223.961 84.4413 224 84.3445 224Z" fill="#CBCBCB"/>
<path d="M43.9688 123.531C44.4185 122.949 44.7355 122.276 44.8975 121.559C45.0595 120.841 45.0626 120.096 44.9066 119.378C44.7505 118.659 44.4391 117.983 43.9943 117.397C43.5495 116.812 42.9822 116.332 42.3321 115.99L44.9786 98.3035L36.5676 102.212L35.344 118.409C34.8439 119.542 34.7756 120.819 35.1521 121.999C35.5287 123.178 36.3238 124.179 37.3869 124.81C38.4501 125.442 39.7073 125.66 40.9204 125.424C42.1334 125.189 43.2181 124.515 43.9688 123.531V123.531Z" fill="#FFB7B7"/>
<path d="M69.3984 217.453L63.3446 217.452L60.4648 194.044L69.3995 194.045L69.3984 217.453Z" fill="#FFB7B7"/>
<path d="M70.9436 223.336L51.4238 223.335V223.087C51.424 221.067 52.2245 219.13 53.6493 217.702C55.0741 216.274 57.0065 215.471 59.0215 215.471H59.022L70.944 215.471L70.9436 223.336Z" fill="#2F2E41"/>
<path d="M91.0377 203.493L85.3841 205.676L74.2949 184.855L82.6388 181.633L91.0377 203.493Z" fill="#FFB7B7"/>
<path d="M94.5895 208.43L76.3605 215.469L76.2717 215.237C75.547 213.351 75.5994 211.253 76.4175 209.406C77.2355 207.558 78.7521 206.112 80.6338 205.385L80.6342 205.385L91.7679 201.086L94.5895 208.43Z" fill="#2F2E41"/>
<path d="M51.8063 109.787L50.0957 119.679L77.4651 203.135L92.0763 198.664L81.6359 167.882L71.086 122.24L70.8574 105.971L51.8063 109.787Z" fill="#2F2E41"/>
<path d="M57.8242 213.012L62.753 179.222L61.9582 172.845L70.8555 153.271L69.8303 106.876L89.2319 109.787L81.634 169.545L71.7391 204.642L69.7514 212.215L57.8242 213.012Z" fill="#2F2E41"/>
<path d="M60.8076 29.4787C66.9556 29.4787 71.9395 24.4824 71.9395 18.3192C71.9395 12.156 66.9556 7.15979 60.8076 7.15979C54.6597 7.15979 49.6758 12.156 49.6758 18.3192C49.6758 24.4824 54.6597 29.4787 60.8076 29.4787Z" fill="#FFB8B8"/>
<path d="M71.7948 6.44522C70.0186 3.55378 67.2384 1.4231 63.9892 0.463278L61.6028 2.37717L62.5306 0.144828C61.7503 0.025504 60.9607 -0.0202468 60.1719 0.00816992L58.0247 2.77572L58.9134 0.102967C57.0502 0.33508 55.2552 0.951687 53.6415 1.9139C52.0279 2.87612 50.6306 4.16307 49.5379 5.69361C46.805 9.64393 46.9879 15.1351 49.6758 19.1163C50.4137 16.8432 50.6651 14.7127 51.403 12.4395C51.9829 12.5188 52.5706 12.5216 53.1513 12.448L54.049 10.3482L54.2998 12.3592C57.0822 12.1162 61.2092 11.5827 63.8471 11.0938L63.5906 9.5511L65.1252 10.8331C65.9334 10.6466 66.4132 10.4775 66.3736 10.3482C68.3354 13.5187 70.2793 15.5438 72.241 18.7143C72.9857 14.2422 74.3004 10.5248 71.7948 6.44522Z" fill="#2F2E41"/>
<path d="M82.433 32.3557C82.433 32.3557 61.2336 30.4665 51.955 38.1865L49.0781 107.396L50.6647 112.796C50.6647 112.796 58.2529 114.315 67.4606 111.696C76.6683 109.077 89.2323 112.796 89.2323 112.796L90.5831 70.4174L82.433 32.3557Z" fill="#CBCBCB"/>
<path d="M51.2248 108.678L57.8405 41.3498L56.5919 35.5441C56.5919 35.5441 43.8285 39.1578 39.1777 46.0195L47.5717 104.365V109.787L51.2248 108.678Z" fill="#3F3D56"/>
<path d="M80.8845 104.207C80.8845 104.207 63.1353 43.8501 69.5048 32.8221C69.5048 32.8221 82.3167 29.2003 88.4383 33.6675L91.8288 70.738C91.8288 70.738 98.6313 91.9337 93.4151 96.9183L94.5599 101.903C94.5599 101.903 87.6008 102.314 86.1108 102.507C84.6207 102.7 80.8845 104.207 80.8845 104.207Z" fill="#3F3D56"/>
<path d="M43.1355 45.62L39.1785 46.0194C39.1785 46.0194 37.7561 46.7939 37.931 50.236C38.1059 53.6782 33.8252 104.12 35.9655 107.396L34.7266 111.667L43.473 114.059L43.9927 109.787C43.9927 109.787 47.5357 98.745 47.9891 95.9399C48.4426 93.1348 43.1355 45.62 43.1355 45.62Z" fill="#3F3D56"/>
<path d="M86.5618 103.368C86.5455 102.632 86.6903 101.902 86.9859 101.229C87.2816 100.555 87.721 99.9551 88.2731 99.4703C88.8251 98.9856 89.4766 98.628 90.1814 98.4229C90.8862 98.2178 91.6274 98.1702 92.3526 98.2833L100.722 82.489L105.163 90.6474L96.5339 104.395C96.2636 105.604 95.5604 106.671 94.5576 107.395C93.5547 108.119 92.3219 108.448 91.0927 108.322C89.8635 108.195 88.7234 107.621 87.8883 106.708C87.0532 105.795 86.5812 104.607 86.5618 103.368Z" fill="#FFB7B7"/>
<path d="M83.3281 35.6257L88.0411 33.6675C88.0411 33.6675 95.7153 37.8491 96.3305 41.9774C96.9456 46.1057 112.133 72.8313 112.133 72.8313C112.133 72.8313 106.703 96.624 101.824 98.0678L99.1729 101.001L91.8477 96.2691L94.2209 93.8899C94.2209 93.8899 94.1586 81.3036 96.3473 79.0489C96.3473 79.0489 90.187 63.2435 87.404 61.6492C84.621 60.055 83.3281 35.6257 83.3281 35.6257Z" fill="#3F3D56"/>
</g>
<defs>
<clipPath id="clip0_110_3735">
<rect width="325" height="224" fill="white"/>
</clipPath>
</defs>
</svg>
