<svg width="327" height="165" viewBox="0 0 327 165" fill="none" xmlns="http://www.w3.org/2000/svg">
<g clip-path="url(#clip0_110_3651)">
<path d="M295.42 134.208H46.7893C43.6108 134.205 40.5636 132.939 38.3161 130.69C36.0686 128.44 34.8044 125.39 34.8008 122.208V27.7751C34.8044 24.5937 36.0686 21.5436 38.3161 19.294C40.5636 17.0443 43.6108 15.7789 46.7893 15.7753H295.42C298.599 15.7789 301.646 17.0443 303.893 19.294C306.141 21.5436 307.405 24.5937 307.409 27.7751V122.208C307.405 125.39 306.141 128.44 303.893 130.69C301.646 132.939 298.599 134.205 295.42 134.208Z" fill="white"/>
<path d="M295.42 134.208H46.7893C43.6108 134.205 40.5636 132.939 38.3161 130.69C36.0686 128.44 34.8044 125.39 34.8008 122.208V27.7751C34.8044 24.5937 36.0686 21.5436 38.3161 19.294C40.5636 17.0443 43.6108 15.7789 46.7893 15.7753H295.42C298.599 15.7789 301.646 17.0443 303.893 19.294C306.141 21.5436 307.405 24.5937 307.409 27.7751V122.208C307.405 125.39 306.141 128.44 303.893 130.69C301.646 132.939 298.599 134.205 295.42 134.208ZM46.7893 16.8188C43.8862 16.8188 41.102 17.9731 39.0493 20.0278C36.9965 22.0825 35.8433 24.8693 35.8433 27.7751V122.208C35.8433 123.647 36.1264 125.072 36.6765 126.401C37.2266 127.73 38.0328 128.938 39.0493 129.956C40.0657 130.973 41.2724 131.78 42.6004 132.331C43.9284 132.881 45.3518 133.165 46.7893 133.165H295.42C296.858 133.165 298.281 132.881 299.609 132.331C300.937 131.78 302.144 130.973 303.16 129.956C304.177 128.938 304.983 127.73 305.533 126.401C306.083 125.072 306.366 123.647 306.366 122.208V86.6019C306.366 68.0943 299.021 50.3447 285.947 37.2578C272.872 24.1709 255.139 16.8188 236.649 16.8188H46.7893Z" fill="#E6E6E6"/>
<path d="M27.117 154.311C27.2187 153.612 26.4867 152.926 25.4821 152.78C24.4775 152.634 23.5807 153.082 23.479 153.782C23.3774 154.481 24.1093 155.167 25.1139 155.313C26.1185 155.459 27.0154 155.011 27.117 154.311Z" fill="white"/>
<path d="M39.078 153.143C39.1797 152.444 38.4477 151.758 37.4431 151.612C36.4385 151.465 35.5417 151.914 35.44 152.613C35.3383 153.313 36.0703 153.999 37.0749 154.145C38.0795 154.291 38.9763 153.843 39.078 153.143Z" fill="#3F3D56"/>
<path d="M23.8416 144.619C23.9433 143.92 23.2114 143.234 22.2068 143.088C21.2021 142.941 20.3053 143.39 20.2036 144.089C20.102 144.789 20.8339 145.474 21.8385 145.621C22.8431 145.767 23.74 145.319 23.8416 144.619Z" fill="#FF6584"/>
<path d="M18.6446 140.649C18.6494 140.007 18.2915 139.483 17.8452 139.48C17.3989 139.477 17.0332 139.994 17.0283 140.637C17.0235 141.279 17.3813 141.802 17.8277 141.806C18.274 141.809 18.6397 141.291 18.6446 140.649Z" fill="#E6E6E6"/>
<path d="M16.8828 133.254C16.8877 132.612 16.5298 132.089 16.0835 132.085C15.6372 132.082 15.2714 132.6 15.2666 133.242C15.2617 133.884 15.6196 134.407 16.0659 134.411C16.5122 134.414 16.878 133.896 16.8828 133.254Z" fill="#3F3D56"/>
<path d="M30.5879 146.268C30.5928 145.626 30.2349 145.103 29.7886 145.1C29.3423 145.096 28.9765 145.614 28.9717 146.256C28.9668 146.898 29.3247 147.422 29.771 147.425C30.2173 147.429 30.5831 146.911 30.5879 146.268Z" fill="#E6E6E6"/>
<path d="M24.8086 149.157C24.8135 148.515 24.4556 147.992 24.0093 147.988C23.563 147.985 23.1972 148.503 23.1924 149.145C23.1875 149.787 23.5454 150.31 23.9917 150.314C24.438 150.317 24.8038 149.799 24.8086 149.157Z" fill="#FF6584"/>
<path d="M32.8536 154.496C32.8584 153.854 32.5005 153.331 32.0542 153.327C31.6079 153.324 31.2422 153.842 31.2373 154.484C31.2324 155.126 31.5903 155.649 32.0366 155.653C32.483 155.656 32.8487 155.138 32.8536 154.496Z" fill="#3F3D56"/>
<path d="M316.08 3.50704C316.301 2.6336 315.463 1.66761 314.209 1.34942C312.954 1.03123 311.758 1.48134 311.537 2.35477C311.316 3.22821 312.154 4.19422 313.408 4.51241C314.662 4.8306 315.859 4.38047 316.08 3.50704Z" fill="white"/>
<path d="M300.761 3.40823C300.982 2.53479 300.145 1.56878 298.89 1.25059C297.636 0.932403 296.44 1.38253 296.219 2.25597C295.998 3.1294 296.835 4.09539 298.09 4.41358C299.344 4.73177 300.54 4.28167 300.761 3.40823Z" fill="#3F3D56"/>
<path d="M318.955 16.2281C319.176 15.3546 318.338 14.3887 317.084 14.0705C315.829 13.7523 314.633 14.2024 314.412 15.0758C314.191 15.9492 315.029 16.9153 316.283 17.2335C317.537 17.5516 318.734 17.1015 318.955 16.2281Z" fill="#FF6584"/>
<path d="M322.526 21.0248C322.617 20.2113 322.233 19.5005 321.667 19.4373C321.102 19.3741 320.57 19.9823 320.479 20.7958C320.388 21.6094 320.773 22.3201 321.338 22.3834C321.904 22.4466 322.436 21.8384 322.526 21.0248Z" fill="#E6E6E6"/>
<path d="M323.788 30.6314C323.879 29.8179 323.494 29.1071 322.929 29.0439C322.363 28.9807 321.831 29.5889 321.741 30.4024C321.65 31.216 322.035 31.9268 322.6 31.99C323.165 32.0532 323.697 31.445 323.788 30.6314Z" fill="#3F3D56"/>
<path d="M308.124 12.3225C308.215 11.509 307.83 10.7982 307.265 10.735C306.699 10.6718 306.167 11.28 306.077 12.0935C305.986 12.9071 306.37 13.6178 306.936 13.6811C307.501 13.7443 308.033 13.1361 308.124 12.3225Z" fill="#E6E6E6"/>
<path d="M315.833 9.42373C315.924 8.61019 315.539 7.89943 314.974 7.83619C314.408 7.77295 313.876 8.38119 313.786 9.19473C313.695 10.0083 314.079 10.719 314.645 10.7823C315.21 10.8455 315.742 10.2373 315.833 9.42373Z" fill="#FF6584"/>
<path d="M306.337 1.59205C306.428 0.77851 306.043 0.0677456 305.478 0.00450868C304.912 -0.0587283 304.38 0.54951 304.289 1.36305C304.199 2.17659 304.583 2.88735 305.149 2.95059C305.714 3.01383 306.246 2.40559 306.337 1.59205Z" fill="#3F3D56"/>
<path d="M134.248 73.07C134.262 82.5205 130.774 91.6403 124.46 98.6661V98.6713C123.567 99.6649 122.624 100.612 121.635 101.509C120.622 102.427 119.561 103.289 118.455 104.092C117.683 104.656 116.891 105.188 116.078 105.689C115.114 106.289 114.122 106.843 113.102 107.353C112.346 107.734 111.575 108.089 110.788 108.417C106.089 110.394 101.044 111.41 95.9479 111.407C93.0697 111.41 90.2003 111.088 87.3943 110.447C86.0967 110.151 84.816 109.786 83.558 109.351C83.0732 109.189 82.5885 109.012 82.1089 108.824C79.2013 107.699 76.4438 106.218 73.8994 104.416C68.5214 100.625 64.2092 95.513 61.3781 89.5706C58.547 83.6283 57.2925 77.0563 57.7354 70.4877C58.1783 63.9192 60.3038 57.5756 63.9069 52.0679C67.5101 46.5602 72.4696 42.0741 78.3077 39.0418C84.1457 36.0095 90.6656 34.5331 97.2391 34.755C103.813 34.9768 110.218 36.8894 115.839 40.3084C121.46 43.7274 126.106 48.5377 129.331 54.2758C132.555 60.0139 134.249 66.4865 134.248 73.07V73.07Z" fill="#F2F2F2"/>
<path d="M248.881 44.5722H182.683C182.131 44.5714 181.602 44.3511 181.211 43.9599C180.821 43.5686 180.602 43.0382 180.602 42.4853C180.602 41.9323 180.821 41.402 181.211 41.0107C181.602 40.6194 182.131 40.3992 182.683 40.3983H248.881C249.434 40.3983 249.964 40.6182 250.355 41.0096C250.746 41.401 250.966 41.9318 250.966 42.4853C250.966 43.0388 250.746 43.5696 250.355 43.9609C249.964 44.3523 249.434 44.5722 248.881 44.5722Z" fill="#DA5757"/>
<path d="M248.881 72.7456H182.683C182.131 72.7448 181.602 72.5246 181.211 72.1333C180.821 71.742 180.602 71.2117 180.602 70.6587C180.602 70.1057 180.821 69.5754 181.211 69.1841C181.602 68.7928 182.131 68.5726 182.683 68.5718H248.881C249.433 68.5726 249.963 68.7928 250.353 69.1841C250.743 69.5754 250.963 70.1057 250.963 70.6587C250.963 71.2117 250.743 71.742 250.353 72.1333C249.963 72.5246 249.433 72.7448 248.881 72.7456Z" fill="#E6E6E6"/>
<path d="M248.881 100.919H182.683C182.131 100.918 181.602 100.698 181.211 100.307C180.821 99.9155 180.602 99.3851 180.602 98.8322C180.602 98.2792 180.821 97.7489 181.211 97.3576C181.602 96.9663 182.131 96.746 182.683 96.7452H248.881C249.434 96.7452 249.964 96.9651 250.355 97.3565C250.746 97.7479 250.966 98.2787 250.966 98.8322C250.966 99.3857 250.746 99.9165 250.355 100.308C249.964 100.699 249.434 100.919 248.881 100.919Z" fill="#E6E6E6"/>
<path d="M83.3827 163.178C75.9095 153.228 71.5901 142.102 71.4485 129.417C71.2078 128.734 71.2477 127.983 71.5597 127.328C71.8716 126.674 72.43 126.171 73.1124 125.928L98.585 116.907C99.2679 116.666 100.018 116.706 100.672 117.018C101.326 117.33 101.829 117.889 102.071 118.572L114.005 152.333C114.246 153.016 114.206 153.768 113.894 154.422C113.582 155.076 113.024 155.579 112.341 155.822L86.8686 164.843C86.1857 165.084 85.4351 165.044 84.7816 164.732C84.1281 164.42 83.625 163.861 83.3827 163.178Z" fill="#E6E6E6"/>
<path d="M81.7321 152.289C77.2374 147.74 75.3135 139.627 74.0598 130.585C73.8343 129.944 73.8717 129.241 74.1638 128.628C74.4559 128.016 74.9789 127.544 75.618 127.317L97.5096 119.564C98.1492 119.338 98.8521 119.375 99.4642 119.668C100.076 119.96 100.547 120.484 100.774 121.123L111.394 151.165C111.62 151.806 111.582 152.509 111.29 153.122C110.998 153.735 110.475 154.206 109.836 154.433L96.2744 159.236C93.4254 160.242 90.2943 160.075 87.5681 158.772C84.8418 157.47 82.743 155.138 81.7321 152.289Z" fill="white"/>
<path d="M101.067 137.307L84.0141 143.4C83.8798 143.448 83.7373 143.469 83.5948 143.462C83.4523 143.455 83.3126 143.42 83.1837 143.358C83.0547 143.297 82.9391 143.211 82.8434 143.105C82.7476 143 82.6737 142.876 82.6257 142.741C82.5778 142.607 82.5567 142.464 82.5638 142.322C82.571 142.179 82.6061 142.039 82.6672 141.91C82.7283 141.781 82.8141 141.665 82.9199 141.569C83.0257 141.474 83.1493 141.4 83.2837 141.352L100.337 135.259C100.608 135.162 100.907 135.177 101.167 135.3C101.427 135.424 101.628 135.646 101.725 135.917C101.822 136.189 101.807 136.488 101.684 136.749C101.56 137.009 101.338 137.21 101.067 137.307H101.067Z" fill="#DA5757"/>
<path d="M85.7629 136.443L82.0113 137.783C81.8769 137.832 81.7343 137.853 81.5917 137.846C81.4491 137.839 81.3093 137.804 81.1802 137.743C81.0512 137.681 80.9355 137.595 80.8397 137.49C80.7438 137.384 80.6698 137.26 80.6218 137.125C80.5738 136.991 80.5528 136.848 80.56 136.705C80.5671 136.563 80.6023 136.423 80.6635 136.293C80.7247 136.164 80.8107 136.049 80.9166 135.953C81.0226 135.857 81.1463 135.783 81.2808 135.735L85.0325 134.395C85.1669 134.347 85.3094 134.325 85.452 134.332C85.5946 134.339 85.7344 134.374 85.8635 134.436C85.9925 134.497 86.1083 134.583 86.2041 134.689C86.2999 134.795 86.3739 134.918 86.4219 135.053C86.4699 135.188 86.4909 135.33 86.4838 135.473C86.4766 135.616 86.4414 135.756 86.3802 135.885C86.319 136.014 86.233 136.13 86.1271 136.225C86.0212 136.321 85.8974 136.395 85.7629 136.443Z" fill="#DA5757"/>
<path d="M104.279 146.312L87.226 152.405C86.9547 152.501 86.6562 152.486 86.396 152.363C86.1359 152.239 85.9354 152.017 85.8386 151.746C85.7418 151.474 85.7566 151.175 85.8798 150.915C86.003 150.654 86.2244 150.454 86.4955 150.356L103.548 144.264C103.82 144.167 104.118 144.182 104.378 144.306C104.639 144.429 104.839 144.651 104.936 144.923C105.033 145.194 105.018 145.493 104.895 145.753C104.771 146.014 104.55 146.215 104.279 146.312Z" fill="#DA5757"/>
<path d="M102.673 141.81L85.6196 147.902C85.3482 147.999 85.0495 147.984 84.7891 147.861C84.5288 147.737 84.3281 147.515 84.2312 147.244C84.1343 146.972 84.1492 146.673 84.2726 146.412C84.396 146.152 84.6178 145.951 84.8892 145.854L101.942 139.761C102.076 139.713 102.219 139.692 102.362 139.699C102.504 139.706 102.644 139.741 102.773 139.802C102.902 139.863 103.018 139.949 103.114 140.055C103.21 140.161 103.284 140.285 103.332 140.419C103.38 140.554 103.401 140.697 103.393 140.839C103.386 140.982 103.351 141.122 103.29 141.251C103.229 141.38 103.143 141.496 103.037 141.592C102.931 141.688 102.807 141.762 102.673 141.81Z" fill="#DA5757"/>
<path d="M87.1881 55.7257C87.7434 60.2104 90.848 63.908 95.3628 63.908C97.5308 63.908 99.6101 63.046 101.143 61.5115C102.676 59.977 103.537 57.8958 103.537 55.7257C103.537 51.2067 99.8582 47.9611 95.3628 47.5433C90.5929 47.1 86.4751 49.9679 87.1881 55.7257Z" fill="#2F2E41"/>
<path d="M102.479 110.848C97.4736 111.71 92.3473 111.573 87.3945 110.447C89.7453 109.148 96.8759 109.946 102.479 110.848Z" fill="#2F2E41"/>
<path d="M70.6632 125.241L74.5899 115.742L77.6837 117.463L75.8153 127.125C76.0024 127.737 76.0153 128.39 75.8523 129.009C75.6894 129.628 75.3572 130.189 74.8931 130.629C74.4289 131.07 73.8512 131.372 73.225 131.502C72.5987 131.632 71.9486 131.584 71.3479 131.364C70.7472 131.144 70.2196 130.761 69.8245 130.258C69.4293 129.755 69.1823 129.151 69.1112 128.515C69.04 127.879 69.1476 127.235 69.4218 126.657C69.6959 126.078 70.1258 125.588 70.6632 125.241Z" fill="#FFB6B6"/>
<path d="M111.282 99.5374V99.5426C111.142 102.85 110.949 105.996 110.787 108.417C106.089 110.394 101.044 111.41 95.9475 111.407C93.0693 111.41 90.1999 111.088 87.3939 110.447C86.0963 110.151 84.8156 109.786 83.5576 109.351C83.7327 109.238 83.922 109.149 84.1206 109.085C85.997 108.449 84.1414 107.869 84.157 107.264C84.2144 105.052 84.8242 102.396 85.6113 99.8504L82.1085 108.824L80.2842 113.488C80.2842 113.488 80.3468 117.516 79.1896 116.285C78.0272 115.054 78.1106 119.04 78.1106 119.04C77.7494 119.297 77.4384 119.619 77.1932 119.989C77.0901 120.156 77.0512 120.354 77.0838 120.547V120.553C77.1362 120.704 77.2393 120.833 77.3757 120.918C78.1628 121.45 77.0317 122.859 76.5313 123.417C76.3958 123.568 76.3072 123.657 76.3072 123.657L71.4961 123.313V123.219C71.517 122.65 71.6473 119.655 72.3926 118.941C73.211 118.153 72.8096 116.906 72.8096 116.906C72.8096 116.906 74.9467 115.012 73.5133 113.473C72.9399 112.852 73.1953 109.174 73.899 104.416C75.4367 93.9183 79.1218 78.1621 80.7168 78.3864C81.0455 76.7883 81.8089 75.3121 82.9227 74.1207C84.0366 72.9294 85.4576 72.0693 87.029 71.6352L92.2258 70.2057L93.1536 66.5379H100.472L101.744 68.9483L107.076 71.3587L107.144 71.39L107.31 71.463L107.373 71.6613C107.373 71.6613 107.368 71.6665 107.373 71.6665L110.339 80.9898C111.673 82.5237 111.621 91.4871 111.282 99.5374Z" fill="#DA5757"/>
<path d="M123.745 118.324L118.789 109.32L122.064 107.978L128.434 115.475C129.028 115.712 129.545 116.109 129.926 116.623C130.307 117.137 130.537 117.748 130.591 118.386C130.644 119.024 130.519 119.664 130.229 120.234C129.939 120.805 129.495 121.283 128.949 121.615C128.402 121.947 127.774 122.12 127.134 122.115C126.494 122.109 125.869 121.925 125.328 121.583C124.788 121.241 124.353 120.755 124.073 120.179C123.793 119.603 123.68 118.961 123.745 118.324Z" fill="#FFB6B6"/>
<path d="M107.078 71.2868C107.96 72.8721 116.021 76.9494 114.624 81.0427C114.624 81.0427 122.197 104.759 123.182 104.604C124.167 104.45 125.128 106.899 125.128 106.899C125.128 106.899 124.919 108.498 125.534 107.834C126.148 107.169 126.001 108.911 126.001 108.911C126.001 108.911 125.706 110.448 126.486 110.03C127.266 109.612 126.241 112.554 126.241 112.554L121.554 114.763L120.663 113.436C120.663 113.436 118.76 113.073 119.655 112.786C120.551 112.499 118.813 111.531 118.813 111.531C118.813 111.531 116.995 110.295 117.249 108.247C117.502 106.199 112.531 102.172 112.531 102.172C109.114 95.419 107.244 88.4855 107.251 81.3333L107.078 71.2868Z" fill="#DA5757"/>
<path d="M96.2665 64.3939C100.27 64.3939 103.515 61.1454 103.515 57.1381C103.515 53.1309 100.27 49.8824 96.2665 49.8824C92.263 49.8824 89.0176 53.1309 89.0176 57.1381C89.0176 61.1454 92.263 64.3939 96.2665 64.3939Z" fill="#FFB6B6"/>
<path d="M88.7595 57.9286C88.989 59.5053 90.3316 61.7051 90.0172 61.7051C89.7028 61.7051 87.4673 55.2054 89.7028 54.7815C91.3242 54.4741 91.6867 54.7438 93.2022 54.086L92.9884 54.2875C93.9913 55.0176 95.3873 54.5675 96.5317 54.0923C97.6793 53.6203 99.0722 53.1702 100.078 53.8972C100.71 54.3535 100.978 55.1466 101.371 55.8201C101.764 56.4967 102.49 57.1355 103.238 56.9279C103.53 56.8151 103.778 56.6127 103.948 56.3497C104.117 56.0868 104.199 55.7769 104.181 55.4645C104.178 54.8413 103.368 54.2486 103.641 53.6895C104.45 52.0327 103.722 50.9035 101.958 50.1239C101.317 50.0263 100.676 49.9267 100.034 49.8249C100.37 49.359 100.778 48.949 101.242 48.6102C101.046 48.1073 100.707 47.6729 100.267 47.3608C99.7235 47.1079 99.1178 47.0204 98.5251 47.109C97.1983 47.1782 95.8725 47.2475 94.5478 47.3167C93.5612 47.2991 92.582 47.49 91.6741 47.8769C90.58 48.4402 89.8631 49.5385 89.3412 50.6557C88.1716 53.1671 88.3571 55.1875 88.7595 57.9286Z" fill="#2F2E41"/>
<path d="M270.095 53.1696H161.08C160.96 53.1696 160.844 53.1219 160.76 53.0369C160.675 52.9519 160.627 52.8367 160.627 52.7165C160.627 52.5964 160.675 52.4811 160.76 52.3962C160.844 52.3112 160.96 52.2635 161.08 52.2635H270.095C270.215 52.2635 270.33 52.3112 270.415 52.3962C270.5 52.4811 270.547 52.5964 270.547 52.7165C270.547 52.8367 270.5 52.9519 270.415 53.0369C270.33 53.1219 270.215 53.1696 270.095 53.1696Z" fill="#E6E6E6"/>
<path d="M270.095 81.2588H161.08C160.96 81.2588 160.844 81.2111 160.76 81.1261C160.675 81.0412 160.627 80.9259 160.627 80.8058C160.627 80.6856 160.675 80.5704 160.76 80.4854C160.844 80.4004 160.96 80.3527 161.08 80.3527H270.095C270.215 80.3527 270.33 80.4004 270.415 80.4854C270.5 80.5704 270.547 80.6856 270.547 80.8058C270.547 80.9259 270.5 81.0412 270.415 81.1261C270.33 81.2111 270.215 81.2588 270.095 81.2588Z" fill="#E6E6E6"/>
<path d="M270.095 109.348H161.08C160.96 109.348 160.844 109.3 160.76 109.215C160.675 109.13 160.627 109.015 160.627 108.895C160.627 108.775 160.675 108.659 160.76 108.574C160.844 108.489 160.96 108.442 161.08 108.442H270.095C270.215 108.442 270.33 108.489 270.415 108.574C270.5 108.659 270.547 108.775 270.547 108.895C270.547 109.015 270.5 109.13 270.415 109.215C270.33 109.3 270.215 109.348 270.095 109.348Z" fill="#E6E6E6"/>
<path d="M286.319 107.552C282.328 107.552 278.468 106.125 275.435 103.529C274.423 102.662 273.345 101.155 272.231 99.0497C271.52 97.6937 271.121 96.1953 271.065 94.6648C271.009 93.1343 271.296 91.6107 271.906 90.2061C271.318 90.8046 270.668 91.3384 269.967 91.7983L269.612 92.0344L269.592 91.6089C269.578 91.3321 269.572 91.0563 269.572 90.789C269.572 89.2142 270.762 87.6161 270.213 86.1604C267.9 80.025 260.563 73.9276 271.196 64.4322C272.18 63.5539 270.866 61.7976 270.866 60.4687C270.866 47.4444 289.256 24.912 294.468 36.8484C300.896 51.569 311.971 49.9945 316.877 53.035L316.948 53.2501L316.738 53.3351C315.665 53.7867 314.534 54.0878 313.378 54.2297C314.61 54.4813 315.868 54.5868 317.125 54.544L317.32 54.5372L317.367 54.7268C317.835 56.6049 318.071 58.5331 318.071 60.4687L318.07 60.6779C318.066 62.148 318.371 63.6025 318.966 64.9467C319.561 66.2908 320.432 67.4943 321.523 68.4788C323.246 70.0512 324.623 71.9657 325.566 74.1002C326.508 76.2347 326.997 78.5425 326.999 80.8763C326.999 83.6374 325.124 87.2618 323.551 89.8161C323.153 90.4668 322.612 91.0186 321.97 91.4303C321.328 91.842 320.601 92.1028 319.844 92.1931C319.127 92.2836 318.398 92.2153 317.711 91.9929C317.023 91.7704 316.392 91.3994 315.863 90.906C316.608 92.4043 317.578 93.7791 318.74 94.9822L318.954 95.2036L318.688 95.359C316.127 96.8535 313.216 97.6404 310.252 97.6392L310.079 97.6388C307.905 97.6163 305.749 98.0283 303.737 98.8504C301.725 99.6725 299.896 100.888 298.359 102.427C296.794 104.04 294.923 105.325 292.856 106.205C290.788 107.085 288.566 107.543 286.319 107.552Z" fill="#E6E6E6"/>
<path d="M280.559 134.098C280.486 134.098 280.416 134.072 280.362 134.024C280.307 133.977 280.271 133.911 280.261 133.839C279.473 126.809 279.426 119.716 280.12 112.677C281.16 101.572 284.498 85.5765 294.499 72.4399C294.523 72.4084 294.553 72.3819 294.587 72.362C294.621 72.3421 294.659 72.3291 294.698 72.3238C294.737 72.3186 294.777 72.321 294.815 72.3311C294.853 72.3413 294.889 72.3588 294.921 72.3828C294.952 72.4068 294.979 72.4368 294.998 72.471C295.018 72.5052 295.031 72.543 295.037 72.5823C295.042 72.6215 295.039 72.6614 295.029 72.6997C295.019 72.7379 295.002 72.7738 294.978 72.8053C285.064 85.8285 281.752 101.706 280.72 112.733C280.03 119.726 280.076 126.771 280.857 133.754C280.863 133.797 280.86 133.841 280.848 133.882C280.836 133.923 280.815 133.962 280.786 133.994C280.758 134.027 280.723 134.053 280.684 134.071C280.645 134.089 280.602 134.098 280.559 134.098Z" fill="#3F3D56"/>
<path d="M288.719 90.9697C288.656 90.9698 288.594 90.9497 288.542 90.9123C288.491 90.8749 288.452 90.8221 288.433 90.7616C288.413 90.701 288.413 90.6358 288.433 90.5752C288.452 90.5146 288.491 90.4618 288.542 90.4244C291.392 88.4938 294.47 86.9253 297.706 85.755C302.762 83.9023 310.45 82.2227 318.365 84.7441C318.403 84.7561 318.438 84.7754 318.468 84.8009C318.498 84.8265 318.523 84.8577 318.541 84.8929C318.559 84.928 318.571 84.9664 318.574 85.0059C318.577 85.0453 318.573 85.085 318.561 85.1227C318.549 85.1604 318.529 85.1954 318.504 85.2257C318.478 85.2559 318.447 85.2809 318.412 85.2991C318.377 85.3172 318.339 85.3283 318.299 85.3317C318.26 85.335 318.22 85.3306 318.182 85.3186C310.43 82.8489 302.881 84.5008 297.913 86.3213C294.729 87.4715 291.7 89.0136 288.896 90.9121C288.845 90.9496 288.783 90.9697 288.719 90.9697Z" fill="#3F3D56"/>
<path d="M274.934 56.6056C274.93 56.5421 274.945 56.4787 274.979 56.4246C275.012 56.3705 275.062 56.3285 275.121 56.3044C275.18 56.2804 275.245 56.2757 275.307 56.2909C275.369 56.3062 275.424 56.3406 275.465 56.3893C277.594 59.0951 279.379 62.0553 280.778 65.2018C282.988 70.1159 285.215 77.6705 283.273 85.7539C283.264 85.7925 283.247 85.8289 283.224 85.861C283.201 85.8931 283.171 85.9204 283.138 85.9411C283.104 85.9619 283.066 85.9758 283.027 85.982C282.988 85.9882 282.948 85.9866 282.91 85.9773C282.871 85.9681 282.835 85.9513 282.803 85.9279C282.771 85.9046 282.744 85.8751 282.723 85.8413C282.702 85.8074 282.688 85.7698 282.682 85.7307C282.676 85.6915 282.678 85.6515 282.687 85.6129C284.59 77.6952 282.4 70.2777 280.228 65.4494C278.853 62.3533 277.098 59.4405 275.005 56.778C274.964 56.7294 274.939 56.669 274.934 56.6056Z" fill="#3F3D56"/>
<path d="M28.6396 101.521C27.1026 99.9826 25.2745 98.7668 23.2621 97.9447C21.2498 97.1226 19.0939 96.7107 16.9205 96.7331L16.7469 96.7336C13.7828 96.7347 10.8717 95.9478 8.3111 94.4533L8.04466 94.2979L8.25926 94.0766C9.42109 92.8734 10.3912 91.4986 11.1357 90.0004C10.6069 90.4938 9.97634 90.8648 9.28849 91.0872C8.60063 91.3096 7.87233 91.378 7.15516 91.2875C6.398 91.1971 5.67111 90.9363 5.02901 90.5247C4.3869 90.113 3.84626 89.5611 3.44764 88.9105C1.87482 86.3562 0 82.7318 0 79.9707C0.0024477 77.6368 0.490645 75.3291 1.43348 73.1946C2.37632 71.0601 3.75311 69.1456 5.47609 67.5732C6.56689 66.5887 7.43816 65.3852 8.03309 64.041C8.62802 62.6969 8.93325 61.2424 8.92891 59.7723L8.92803 59.563C8.92774 57.6275 9.16404 55.6992 9.63167 53.8212L9.67915 53.6315L9.87409 53.6383C11.1312 53.6812 12.389 53.5757 13.6214 53.3241C12.4654 53.1822 11.3344 52.8811 10.2607 52.4294L10.051 52.3445L10.1222 52.1294C15.0283 49.0889 26.1027 50.6634 32.5307 35.9428C37.7429 24.0064 56.1332 46.5388 56.1332 59.563C56.1332 60.892 54.8193 62.6482 55.8029 63.5266C66.4362 73.022 59.0994 79.1193 56.7862 85.2547C56.2374 86.7104 57.4274 88.3085 57.4274 89.8834C57.4274 90.1506 57.4206 90.4265 57.4071 90.7033L57.3867 91.1288L57.0321 90.8927C56.3307 90.4328 55.6806 89.899 55.0928 89.3005C55.7026 90.7051 55.99 92.2287 55.9338 93.7592C55.8776 95.2896 55.4794 96.788 54.7682 98.1441C53.6539 100.249 52.5758 101.756 51.564 102.623C48.3227 105.4 44.1443 106.832 39.8831 106.627C35.622 106.422 31.6 104.595 28.6396 101.521H28.6396Z" fill="#E6E6E6"/>
<path d="M46.4415 133.193C46.514 133.192 46.584 133.166 46.6387 133.119C46.6934 133.071 46.7291 133.005 46.7393 132.934C47.5269 125.904 47.574 118.811 46.8798 111.771C45.8403 100.666 42.502 84.6709 32.5017 71.5343C32.4777 71.5028 32.4478 71.4763 32.4136 71.4564C32.3794 71.4365 32.3416 71.4235 32.3024 71.4182C32.2632 71.4129 32.2234 71.4154 32.1851 71.4255C32.1469 71.4356 32.111 71.4532 32.0796 71.4772C32.0481 71.5012 32.0217 71.5311 32.0018 71.5654C31.9819 71.5996 31.9689 71.6374 31.9636 71.6766C31.9584 71.7159 31.9608 71.7558 31.9709 71.794C31.981 71.8323 31.9986 71.8682 32.0226 71.8997C41.9365 84.9229 45.2479 100.801 46.2801 111.827C46.9705 118.82 46.9245 125.866 46.143 132.849C46.1369 132.891 46.1402 132.935 46.1524 132.976C46.1646 133.018 46.1856 133.056 46.2139 133.089C46.2422 133.121 46.2772 133.147 46.3164 133.165C46.3557 133.183 46.3984 133.193 46.4415 133.193Z" fill="#3F3D56"/>
<path d="M38.2814 90.0641C38.345 90.0641 38.407 90.044 38.4585 90.0066C38.51 89.9692 38.5483 89.9165 38.568 89.8559C38.5877 89.7953 38.5877 89.7301 38.5681 89.6696C38.5484 89.609 38.5101 89.5562 38.4587 89.5188C35.6092 87.5881 32.5309 86.0197 29.2947 84.8494C24.2388 82.9967 16.5505 81.317 8.6356 83.8384C8.59792 83.8504 8.56296 83.8698 8.53273 83.8953C8.50251 83.9208 8.47761 83.9521 8.45944 83.9872C8.44128 84.0224 8.4302 84.0608 8.42686 84.1002C8.42352 84.1397 8.42797 84.1794 8.43997 84.2171C8.45196 84.2548 8.47125 84.2898 8.49675 84.32C8.52225 84.3503 8.55347 84.3752 8.58859 84.3934C8.62372 84.4116 8.66208 84.4227 8.70149 84.426C8.74089 84.4294 8.78056 84.4249 8.81825 84.4129C16.571 81.9433 24.1199 83.5952 29.0876 85.4156C32.2718 86.5658 35.3007 88.108 38.1045 90.0065C38.1559 90.0439 38.2178 90.0641 38.2814 90.0641Z" fill="#3F3D56"/>
<path d="M52.0649 55.6999C52.0695 55.6364 52.0539 55.5731 52.0204 55.519C51.9868 55.4649 51.937 55.4228 51.8781 55.3988C51.8192 55.3748 51.7542 55.37 51.6924 55.3853C51.6306 55.4005 51.5753 55.435 51.5342 55.4837C49.4053 58.1894 47.6207 61.1496 46.2215 64.2962C44.0112 69.2103 41.7838 76.7649 43.7263 84.8483C43.7355 84.8869 43.7522 84.9233 43.7754 84.9554C43.7986 84.9875 43.8279 85.0147 43.8617 85.0355C43.8955 85.0562 43.933 85.0701 43.9721 85.0763C44.0113 85.0825 44.0512 85.081 44.0897 85.0717C44.1283 85.0624 44.1646 85.0456 44.1966 85.0223C44.2286 84.9989 44.2557 84.9695 44.2764 84.9357C44.297 84.9018 44.3108 84.8642 44.3169 84.825C44.323 84.7858 44.3213 84.7458 44.3119 84.7073C42.4093 76.7895 44.599 69.3721 46.7708 64.5437C48.1462 61.4477 49.901 58.5348 51.9947 55.8723C52.0358 55.8237 52.0603 55.7634 52.0649 55.6999Z" fill="#3F3D56"/>
</g>
<defs>
<clipPath id="clip0_110_3651">
<rect width="327" height="165" fill="white"/>
</clipPath>
</defs>
</svg>
